# xmcd
#
# Track frame offsets:
#	150
#	14488
#	24629
#	40897
#	57278
#	70480
#	88819
#	103077
#	116780
#	135945
#	153451
#	169156
#
# Disc length: 2428 seconds
#
# Revision: 1
# Processed by: cddbd v1.5.2PL0 Copyright (c) Steve Scherf et al.
# Submitted via: audiograbber 1.83.01
#
DISCID=a4097a0c
DTITLE=Various Artist - CDX 040
DYEAR=1992
DGENRE=Country
TTITLE0=Stacy Dean Campbell - Baby Don't You Know
TTITLE1=The Normaltown Flyers - Country Boy's Dream
TTITLE2=George Strait - I Cross My Heart
TTITLE3=George Jones - I Don't Need Your Rockin' Chair
TTITLE4=Kathy Mattea - Lonesome Standard Time
TTITLE5=Toy Caldwell - Midnight Promises
TTITLE6=Ray Kennedy - No Way Jose
TTITLE7=Waylon Jennings - Too Dumb For New York City
TTITLE8=Tanya Tucker - Two Sparrows In A Hurricane
TTITLE9=Garth Brooks - We Shall Be Free
TTITLE10=Little Texas - What Were You Thinkin'
TTITLE11=John Michael Montgomery - Various Literacy PSAs
EXTD=
EXTT0=
EXTT1=
EXTT2=
EXTT3=
EXTT4=
EXTT5=
EXTT6=
EXTT7=
EXTT8=
EXTT9=
EXTT10=
EXTT11=
PLAYORDER=
